<svg width="40" height="40" viewBox="0 0 40 40" fill="none" xmlns="http://www.w3.org/2000/svg">
<g clip-path="url(#clip0_318_131)">
<path d="M30.625 0H9.375C4.19733 0 0 4.19733 0 9.375V30.625C0 35.8027 4.19733 40 9.375 40H30.625C35.8027 40 40 35.8027 40 30.625V9.375C40 4.19733 35.8027 0 30.625 0Z" fill="white"/>
<path d="M30.625 0H9.375C4.19733 0 0 4.19733 0 9.375V30.625C0 35.8027 4.19733 40 9.375 40H30.625C35.8027 40 40 35.8027 40 30.625V9.375C40 4.19733 35.8027 0 30.625 0Z" fill="#0A66C2"/>
<path d="M26.9652 29H30.5489C30.6788 29 30.8034 28.9484 30.8952 28.8566C30.987 28.7648 31.0387 28.6402 31.0387 28.5104L31.0405 20.9387C31.0405 16.9811 30.1878 13.9392 25.563 13.9392C23.8049 13.8738 22.147 14.7801 21.2523 16.2934C21.248 16.3008 21.2413 16.3065 21.2334 16.3097C21.2254 16.3129 21.2167 16.3134 21.2084 16.3112C21.2002 16.309 21.1929 16.3041 21.1876 16.2973C21.1824 16.2906 21.1796 16.2823 21.1795 16.2737V14.7943C21.1795 14.6644 21.1279 14.5398 21.036 14.448C20.9442 14.3562 20.8196 14.3046 20.6897 14.3046H17.2888C17.1589 14.3046 17.0344 14.3562 16.9425 14.448C16.8507 14.5398 16.7991 14.6644 16.7991 14.7943V28.5096C16.7991 28.6395 16.8507 28.7641 16.9425 28.8559C17.0344 28.9478 17.1589 28.9994 17.2888 28.9994H20.8723C21.0022 28.9994 21.1268 28.9478 21.2186 28.8559C21.3104 28.7641 21.362 28.6395 21.362 28.5096V21.73C21.362 19.813 21.7257 17.9565 24.1023 17.9565C26.4451 17.9565 26.4755 20.15 26.4755 21.8541V28.5103C26.4755 28.6401 26.5271 28.7647 26.6189 28.8566C26.7108 28.9484 26.8353 29 26.9652 29ZM9.00195 9.64806C9.00195 11.1006 10.1978 12.2959 11.6505 12.2959C13.1028 12.2957 14.2979 11.0998 14.2979 9.64744C14.2977 8.1951 13.1025 7 11.65 7C10.1972 7 9.00195 8.19547 9.00195 9.64806ZM9.85399 29H13.4422C13.5721 29 13.6967 28.9484 13.7885 28.8566C13.8804 28.7647 13.932 28.6401 13.932 28.5103V14.7943C13.932 14.6644 13.8804 14.5398 13.7885 14.448C13.6967 14.3562 13.5721 14.3046 13.4422 14.3046H9.85399C9.7241 14.3046 9.59953 14.3562 9.50769 14.448C9.41584 14.5398 9.36424 14.6644 9.36424 14.7943V28.5103C9.36424 28.6401 9.41584 28.7647 9.50769 28.8566C9.59953 28.9484 9.7241 29 9.85399 29Z" fill="white"/>
</g>
<defs>
<clipPath id="clip0_318_131">
<rect width="40" height="40" rx="20" fill="white"/>
</clipPath>
</defs>
</svg>
