<svg width="40" height="40" viewBox="0 0 40 40" fill="none" xmlns="http://www.w3.org/2000/svg">
<rect width="40" height="40" rx="20" fill="#131313"/>
<path d="M14.544 26.16C13.6907 26.16 12.896 26.016 12.16 25.728C11.4347 25.4293 10.8 25.0187 10.256 24.496C9.712 23.9733 9.28533 23.3653 8.976 22.672C8.67733 21.968 8.528 21.2107 8.528 20.4C8.528 19.5787 8.67733 18.8213 8.976 18.128C9.28533 17.424 9.712 16.8107 10.256 16.288C10.8107 15.7653 11.4507 15.36 12.176 15.072C12.912 14.7733 13.7013 14.624 14.544 14.624C15.1627 14.624 15.7707 14.7147 16.368 14.896C16.9653 15.0773 17.5147 15.3333 18.016 15.664C18.528 15.984 18.9547 16.368 19.296 16.816L17.44 18.64C17.0453 18.1387 16.6027 17.7653 16.112 17.52C15.632 17.2747 15.1093 17.152 14.544 17.152C14.096 17.152 13.6747 17.2373 13.28 17.408C12.896 17.568 12.56 17.792 12.272 18.08C11.984 18.368 11.76 18.7093 11.6 19.104C11.44 19.4987 11.36 19.9307 11.36 20.4C11.36 20.8587 11.44 21.2853 11.6 21.68C11.7707 22.064 12 22.4053 12.288 22.704C12.5867 22.992 12.9333 23.216 13.328 23.376C13.7333 23.536 14.1707 23.616 14.64 23.616C15.184 23.616 15.6853 23.4987 16.144 23.264C16.6133 23.0293 17.0347 22.6827 17.408 22.224L19.216 24C18.8747 24.4373 18.4533 24.8213 17.952 25.152C17.4507 25.472 16.9067 25.7227 16.32 25.904C15.7333 26.0747 15.1413 26.16 14.544 26.16ZM23.8691 26L19.3411 14.8H22.3171L25.5011 23.136L28.7491 14.8H31.6131L27.0211 26H23.8691Z" fill="white"/>
</svg>
