<svg width="40" height="40" viewBox="0 0 40 40" fill="none" xmlns="http://www.w3.org/2000/svg">
<rect width="40" height="40" rx="20" fill="white"/>
<path d="M9.63632 29.0054H13.4545V19.7326L8 15.6418V27.3691C8 28.2745 8.73368 29.0054 9.63632 29.0054Z" fill="#4285F4"/>
<path d="M26.5459 29.0054H30.3642C31.2696 29.0054 32.0005 28.2717 32.0005 27.3691V15.6417L26.5459 19.7326" fill="#34A853"/>
<path d="M26.5459 12.6417V19.7326L32.0005 15.6418V13.4597C32.0005 11.4362 29.6905 10.2825 28.0733 11.4962" fill="#FBBC04"/>
<path d="M13.4541 19.7326V12.6418L19.9995 17.5506L26.5449 12.6415V19.7325L19.9995 24.6417" fill="#EA4335"/>
<path d="M8 13.4599V15.6417L13.4545 19.7326V12.6418L11.9272 11.4963C10.3072 10.2826 8 11.4363 8 13.4599Z" fill="#C5221F"/>
</svg>
