<svg width="40" height="40" viewBox="0 0 40 40" fill="none" xmlns="http://www.w3.org/2000/svg">
<g clip-path="url(#clip0_167_3031)">
<path d="M30.625 0H9.375C4.19733 0 0 4.19733 0 9.375V30.625C0 35.8027 4.19733 40 9.375 40H30.625C35.8027 40 40 35.8027 40 30.625V9.375C40 4.19733 35.8027 0 30.625 0Z" fill="#242938"/>
<mask id="mask0_167_3031" style="mask-type:luminance" maskUnits="userSpaceOnUse" x="11" y="8" width="17" height="24">
<path d="M11.9482 8H27.9514V32H11.9482V8Z" fill="white"/>
</mask>
<g mask="url(#mask0_167_3031)">
<path d="M15.9503 31.9999C18.1583 31.9999 19.9502 30.208 19.9502 28V23.9999H15.9503C13.7423 23.9999 11.9502 25.792 11.9502 28C11.9502 30.208 13.7423 31.9999 15.9503 31.9999Z" fill="#0ACF83"/>
<path d="M11.9502 20.0001C11.9502 17.7921 13.7423 16.0001 15.9503 16.0001H19.9502V24H15.9503C13.7423 24 11.9502 22.2081 11.9502 20.0001Z" fill="#A259FF"/>
<path d="M11.9502 12C11.9502 9.79196 13.7423 8 15.9503 8H19.9502V16H15.9503C13.7423 16 11.9502 14.208 11.9502 12Z" fill="#F24E1E"/>
<path d="M19.9502 8H23.9502C26.1582 8 27.9502 9.79196 27.9502 12C27.9502 14.208 26.1582 16 23.9502 16H19.9502V8Z" fill="#FF7262"/>
<path d="M27.9502 20.0001C27.9502 22.2081 26.1582 24 23.9502 24C21.7422 24 19.9502 22.2081 19.9502 20.0001C19.9502 17.7921 21.7422 16.0001 23.9502 16.0001C26.1582 16.0001 27.9502 17.7921 27.9502 20.0001Z" fill="#1ABCFE"/>
</g>
</g>
<defs>
<clipPath id="clip0_167_3031">
<rect width="40" height="40" rx="20" fill="white"/>
</clipPath>
</defs>
</svg>
