<svg width="40" height="40" viewBox="0 0 40 40" fill="none" xmlns="http://www.w3.org/2000/svg">
<rect width="40" height="40" rx="20" fill="#0568FD"/>
<path d="M14.3092 13.0374C13.5087 13.1306 12.7307 13.4392 12.0685 13.9311C11.7727 14.1529 6.84123 19.0265 6.54225 19.3962C4.89628 21.4215 5.36243 24.4209 7.54848 25.8708C8.30074 26.3691 9.10122 26.6038 10.0399 26.6038C10.9787 26.6038 11.7759 26.3627 12.5635 25.8419C12.8368 25.6618 13.0779 25.44 14.0938 24.4338C14.756 23.778 17.0064 21.5501 19.0928 19.4798C21.491 17.1041 22.957 15.6735 23.0759 15.5963C23.7799 15.1302 24.7379 15.1077 25.4741 15.5353C25.6413 15.6317 26.1975 16.1654 28.2356 18.181C29.6373 19.5698 30.8493 20.7947 30.9264 20.9007C31.2061 21.2929 31.325 21.6723 31.325 22.1834C31.325 22.5596 31.2736 22.791 31.1129 23.1286C30.6146 24.1863 29.3801 24.6781 28.2678 24.2602C27.9142 24.1252 27.6956 23.9451 26.744 23.0064C25.7281 22.0002 25.5674 21.862 25.2716 21.7205C24.8022 21.4987 24.2011 21.444 23.7381 21.5855C23.2045 21.7494 23.1563 21.7848 21.7996 23.1157C21.0795 23.8198 20.4719 24.3856 20.3691 24.4531C19.8065 24.8099 19.2053 24.8839 18.4338 24.6942C17.8326 24.5463 17.2957 24.5881 16.9485 24.8067C16.447 25.1282 16.3184 25.8708 16.6978 26.2502C16.9485 26.5009 17.7201 26.8192 18.3855 26.9445C18.7745 27.0185 19.5332 27.0185 19.9447 26.9445C20.5909 26.8288 21.311 26.5202 21.8221 26.1441C21.9636 26.038 22.5873 25.4529 23.2045 24.8453L24.3297 23.7426L25.278 24.6845C26.3036 25.7004 26.5672 25.9126 27.149 26.1826C27.7663 26.4688 28.2067 26.5716 28.9365 26.5941C29.5794 26.6134 29.9523 26.5652 30.4763 26.3948C32.058 25.8772 33.2025 24.5688 33.4982 22.9389C33.5818 22.4953 33.5722 21.7687 33.4822 21.3444C33.3214 20.5696 33.0353 19.962 32.5531 19.3705C32.2316 18.9751 27.3226 14.1336 26.9947 13.8893C26.6797 13.6546 26.1332 13.3717 25.7635 13.2496C25.2684 13.0856 24.889 13.0277 24.3168 13.0277C23.8957 13.0277 23.7189 13.0406 23.4585 13.0985C22.7962 13.2367 22.1147 13.5389 21.6132 13.9182C21.4364 14.0532 19.8418 15.6092 17.1285 18.2968C10.789 24.5785 11.3902 23.9966 11.0719 24.1541C10.6893 24.3438 10.4514 24.3984 10.0271 24.3984C9.48057 24.3984 9.08515 24.2634 8.65115 23.9355C8.31039 23.6783 8.06928 23.3472 7.91175 22.9228C7.83138 22.7107 7.81209 22.6014 7.79924 22.3024C7.77673 21.7334 7.88925 21.3251 8.18823 20.9072C8.26859 20.7914 9.43878 19.6116 10.8822 18.181C13.6373 15.4581 13.5859 15.5031 14.1099 15.3295C14.3349 15.2556 14.4217 15.2427 14.785 15.2427C15.1354 15.2427 15.2479 15.2556 15.4761 15.3199C15.7076 15.3874 15.8169 15.4002 16.1995 15.4002C16.6431 15.4002 16.6528 15.4002 16.8649 15.2942C17.2475 15.1077 17.479 14.7541 17.479 14.3587C17.479 13.9504 17.315 13.7382 16.8199 13.4939C16.0484 13.1177 15.1097 12.9474 14.3092 13.0374Z" fill="white"/>
</svg>
