<svg width="40" height="40" viewBox="0 0 40 40" fill="none" xmlns="http://www.w3.org/2000/svg">
<g clip-path="url(#clip0_167_3059)">
<path d="M30.625 0H9.375C4.19733 0 0 4.19733 0 9.375V30.625C0 35.8027 4.19733 40 9.375 40H30.625C35.8027 40 40 35.8027 40 30.625V9.375C40 4.19733 35.8027 0 30.625 0Z" fill="#4353FF"/>
<path d="M26.5617 16.2464C26.5617 16.2464 24.4507 22.8598 24.2947 23.4214C24.2324 22.8702 22.6934 10.9846 22.6934 10.9846C19.0955 10.9846 17.1821 13.5426 16.1629 16.2464C16.1629 16.2464 13.5945 22.8806 13.3866 23.4318C13.3762 22.9118 12.9914 16.3087 12.9914 16.3087C12.7729 12.9915 9.74692 10.9846 7.29297 10.9846L10.2463 28.9846C14.0105 28.9742 16.0383 26.4266 17.0988 23.7126C17.0988 23.7126 19.3554 17.8581 19.449 17.5982C19.4698 17.8477 21.0711 28.9846 21.0711 28.9846C24.8459 28.9846 26.8841 26.6034 27.9758 23.9933L33.2688 10.9846C29.5356 10.9846 27.5703 13.5322 26.5617 16.2464Z" fill="white"/>
</g>
<defs>
<clipPath id="clip0_167_3059">
<rect width="40" height="40" rx="20" fill="white"/>
</clipPath>
</defs>
</svg>
