<svg width="112" height="112" viewBox="0 0 112 112" fill="none" xmlns="http://www.w3.org/2000/svg">
<rect width="112" height="112" rx="24" fill="#ECA183"/>
<path d="M93.9523 55.9888L93.9522 55.9999L93.9523 56.0109C93.9589 56.8687 93.6982 57.7073 93.2062 58.41C92.7143 59.1128 92.0156 59.6448 91.2074 59.9321L91.1977 59.9356L68.8946 68.0462L68.2703 68.2732L68.0434 68.8975L59.9396 91.1882C59.9391 91.1896 59.9385 91.1911 59.938 91.1925C59.6392 91.9948 59.1025 92.6866 58.3996 93.1755C57.6955 93.6652 56.8583 93.9277 56.0006 93.9277C55.1429 93.9277 54.3057 93.6652 53.6016 93.1755C52.8985 92.6865 52.3617 91.9944 52.063 91.1919C52.0625 91.1907 52.062 91.1894 52.0616 91.1882L43.9579 68.8941L43.7309 68.2696L43.1064 68.0426L20.8123 59.9389C20.8109 59.9384 20.8095 59.9378 20.8081 59.9373C20.0058 59.6385 19.3139 59.1018 18.825 58.3989C18.3353 57.6947 18.0728 56.8576 18.0728 55.9999C18.0728 55.1422 18.3353 54.305 18.825 53.6009C19.3139 52.8979 20.0058 52.3612 20.8081 52.0624C20.8095 52.0619 20.8109 52.0614 20.8123 52.0608L43.1064 43.9571L43.7309 43.7301L43.9579 43.1056L52.0616 20.8116C52.062 20.8103 52.0625 20.809 52.063 20.8078C52.3617 20.0053 52.8985 19.3132 53.6016 18.8243C54.3057 18.3345 55.1429 18.072 56.0006 18.072C56.8583 18.072 57.6955 18.3345 58.3996 18.8243C59.1026 19.3132 59.6393 20.0051 59.9381 20.8075C59.9386 20.8089 59.9391 20.8102 59.9396 20.8116L68.0469 43.1058L68.2739 43.7301L68.8983 43.9571L91.1979 52.0642L91.2074 52.0676C92.0156 52.3549 92.7143 52.887 93.2062 53.5897C93.6982 54.2925 93.9589 55.131 93.9523 55.9888Z" fill="#FCF2EE" stroke="#ECA183" stroke-width="2.84673"/>
</svg>
