<svg width="40" height="40" viewBox="0 0 40 40" fill="none" xmlns="http://www.w3.org/2000/svg">
<rect width="40" height="40" rx="20" fill="#FA0F00"/>
<g clip-path="url(#clip0_182_1550)">
<path d="M31.6668 19.598V20.4027L31.6435 20.5317C31.6045 20.8835 31.5768 21.2352 31.5228 21.5787C31.3387 22.6934 30.9392 23.7615 30.3468 24.7235C29.4761 26.1695 28.2101 27.3364 26.698 28.0865C25.8182 28.5289 24.8675 28.8133 23.8893 28.9265C23.6698 28.953 23.4523 28.9777 23.2368 29.0007H14.803C14.7603 28.9932 14.7213 28.9812 14.6778 28.9775C13.832 28.927 13.0022 28.7245 12.2283 28.3797C10.5288 27.6222 9.26352 26.399 8.43552 24.716C8.0717 23.9703 7.83543 23.169 7.73652 22.3452L7.66602 21.7437V20.9622C7.67352 20.9195 7.68552 20.876 7.68927 20.8332C7.73202 20.087 7.88427 19.3565 8.15052 18.6575C8.86527 16.7787 10.1155 15.3837 11.8885 14.4777C12.7983 14.0169 13.7955 13.7546 14.8143 13.7082C15.3183 13.685 15.8223 13.7082 16.318 13.7787C16.3441 13.7819 16.3706 13.7793 16.3956 13.7711C16.4206 13.763 16.4436 13.7494 16.4628 13.7315C17.1719 12.9922 18.0031 12.3805 18.9198 11.9232C19.8045 11.4778 20.7605 11.191 21.7443 11.0757C21.9793 11.0492 22.2123 11.0245 22.4433 11.0015H23.1618C23.209 11.009 23.2593 11.0172 23.3028 11.021C23.662 11.0637 24.0175 11.0915 24.373 11.1537C25.4628 11.3412 26.5098 11.7432 27.4435 12.3372C28.8815 13.2339 30.0335 14.5227 30.7638 16.052C31.201 16.9505 31.4823 17.9195 31.5955 18.9117L31.666 19.5995L31.6668 19.598ZM18.2448 14.3982C18.2605 14.4177 18.2643 14.4297 18.2718 14.4297C18.7638 14.6795 19.2363 14.969 19.6818 15.2967C19.7088 15.3162 19.7793 15.3087 19.8145 15.2892C21.0333 14.5002 22.3615 14.231 23.7835 14.4845C25.1778 14.7387 26.3148 15.4452 27.1818 16.5785C28.162 17.8595 28.537 19.3092 28.2678 20.918C28.084 21.9965 27.658 22.9685 26.9358 23.7777C25.6158 25.2582 23.9628 25.8717 22.018 25.6137C20.8225 25.4532 19.7875 24.926 18.9318 24.047C17.8338 22.922 16.7283 21.8007 15.6273 20.6757C15.4788 20.5235 15.319 20.4065 15.1075 20.3787C14.9304 20.3541 14.7501 20.3876 14.5938 20.4743C14.4374 20.561 14.3134 20.6962 14.2405 20.8595C14.0995 21.1565 14.1198 21.4962 14.428 21.8045C15.6543 23.0307 16.8693 24.269 18.0963 25.496C18.3078 25.7075 18.533 25.9015 18.772 26.078C19.6668 26.738 20.6785 27.1055 21.772 27.254C22.6315 27.3672 23.4828 27.344 24.3265 27.1482C25.9398 26.7807 27.2755 25.9452 28.3263 24.6522C29.1863 23.6023 29.732 22.3306 29.9005 20.984C30.0088 20.1981 29.9877 19.3998 29.8383 18.6207C29.5923 17.351 29.065 16.2147 28.2175 15.2457C26.6005 13.3977 24.565 12.5735 22.1433 12.7572C21.2174 12.8348 20.318 13.1048 19.5025 13.55C19.0541 13.7846 18.6334 14.0688 18.2485 14.3975L18.2448 14.3982ZM17.6553 27.2892C17.62 27.2577 17.5885 27.227 17.554 27.1955C17.0538 26.7147 16.5498 26.2347 16.054 25.7465C16.0138 25.7017 15.9643 25.6664 15.909 25.6428C15.8537 25.6192 15.7939 25.608 15.7338 25.61C15.2298 25.622 14.7295 25.6257 14.2338 25.5125C11.773 24.9462 10.3428 22.2237 11.2495 19.829C11.9643 17.942 13.945 16.7937 15.898 17.1455C16.7733 17.306 17.5428 17.6847 18.175 18.3447C18.9445 19.1532 19.7335 19.9347 20.515 20.7357C20.6905 20.9157 20.8938 21.0012 21.1398 20.966C21.4525 20.9187 21.706 20.7665 21.8193 20.45C21.9325 20.1372 21.8778 19.8447 21.6475 19.6062C20.8308 18.7662 20.0343 17.903 19.1868 17.0982C17.5383 15.536 15.5973 15.071 13.4485 15.7347C10.5618 16.6295 8.87052 19.6602 9.53052 22.6527C10.132 25.3835 12.4795 27.2937 15.2223 27.2975H17.5233C17.5585 27.2975 17.5975 27.2937 17.656 27.29L17.6553 27.2892Z" fill="white"/>
</g>
<defs>
<clipPath id="clip0_182_1550">
<rect width="24" height="24" fill="white" transform="translate(7.66699 8)"/>
</clipPath>
</defs>
</svg>
