<svg width="41" height="40" viewBox="0 0 41 40" fill="none" xmlns="http://www.w3.org/2000/svg">
<rect x="0.666992" width="40" height="40" rx="20" fill="white"/>
<g clip-path="url(#clip0_167_3069)">
<path d="M31.6038 8H20.0771C20.0771 8.68332 20.2117 9.35994 20.4732 9.99125C20.7347 10.6226 21.1179 11.1962 21.6011 11.6794C22.0843 12.1625 22.6579 12.5458 23.2892 12.8073C23.9205 13.0688 24.5971 13.2033 25.2805 13.2033H27.4038V15.2534C27.4057 18.1245 29.7326 20.4516 32.6037 20.4535V8.99994C32.6037 8.44784 32.1562 8 31.6038 8Z" fill="#2684FF"/>
<path d="M25.9006 13.7432H14.374C14.3758 16.6143 16.7028 18.9413 19.574 18.9432H21.6973V20.9999C21.701 23.871 24.0295 26.1964 26.9006 26.1964V14.7433C26.9006 14.191 26.4529 13.7432 25.9006 13.7432Z" fill="url(#paint0_linear_167_3069)"/>
<path d="M20.1936 19.4834H8.66699C8.66699 22.3571 10.9967 24.6867 13.8703 24.6867H16.0003V26.7367C16.0022 29.6052 18.3251 31.9312 21.1937 31.9367V20.4834C21.1937 19.9311 20.7459 19.4834 20.1936 19.4834Z" fill="url(#paint1_linear_167_3069)"/>
</g>
<defs>
<linearGradient id="paint0_linear_167_3069" x1="1242.37" y1="15.7482" x2="755.023" y2="524.272" gradientUnits="userSpaceOnUse">
<stop offset="0.18" stop-color="#0052CC"/>
<stop offset="1" stop-color="#2684FF"/>
</linearGradient>
<linearGradient id="paint1_linear_167_3069" x1="1269.67" y1="25.1496" x2="705.93" y2="579.794" gradientUnits="userSpaceOnUse">
<stop offset="0.18" stop-color="#0052CC"/>
<stop offset="1" stop-color="#2684FF"/>
</linearGradient>
<clipPath id="clip0_167_3069">
<rect width="24" height="24" fill="white" transform="translate(8.66699 8)"/>
</clipPath>
</defs>
</svg>
