<svg width="40" height="40" viewBox="0 0 40 40" fill="none" xmlns="http://www.w3.org/2000/svg">
<g clip-path="url(#clip0_182_1557)">
<path d="M0 10C0 4.47719 4.47719 0 10 0H30C35.5228 0 40 4.47719 40 10V30C40 35.5228 35.5228 40 30 40H10C4.47719 40 0 35.5228 0 30V10Z" fill="#FFDD33"/>
<path d="M25.9413 9.03137H22.7218L25.4047 13.7453L19.5023 9.03137H16.2828L19.2341 14.7929L13.0633 9.03137H9.84375L13.0633 16.3652L9.84375 31.0314H13.0633L19.2341 15.3174L16.2828 31.0314H19.5023L25.4047 14.2698L22.7218 31.0314H25.9413L31.8438 12.6975L25.9413 9.03137Z" fill="black"/>
</g>
<defs>
<clipPath id="clip0_182_1557">
<rect width="40" height="40" rx="20" fill="white"/>
</clipPath>
</defs>
</svg>
